<?xml version="1.0" encoding="utf-8"?>
<!-- Generator: Adobe Illustrator 16.0.0, SVG Export Plug-In . SVG Version: 6.00 Build 0)  -->
<!DOCTYPE svg PUBLIC "-//W3C//DTD SVG 1.1//EN" "http://www.w3.org/Graphics/SVG/1.1/DTD/svg11.dtd">
<svg version="1.1" id="Layer_1" xmlns="http://www.w3.org/2000/svg" xmlns:xlink="http://www.w3.org/1999/xlink" x="0px" y="0px"
	 width="60px" height="60px" viewBox="0 0 60 60" enable-background="new 0 0 60 60" xml:space="preserve">
<g>
	<path fill="#FFFFFF" d="M30,0C13.432,0,0,13.432,0,30c0,16.567,13.433,30,30,30c16.568,0,30-13.434,30-30C60,13.432,46.567,0,30,0z
		 M45.842,43.773l-2.402,2.402c-0.429,0.428-1.685,0.695-1.725,0.695c-7.6,0.066-14.916-2.919-20.292-8.295
		c-5.39-5.394-8.378-12.736-8.298-20.361c0-0.004,0.275-1.224,0.704-1.648l2.402-2.402c0.879-0.883,2.567-1.282,3.75-0.886
		l0.505,0.168c1.179,0.396,2.417,1.699,2.743,2.901l1.208,4.435c0.326,1.205-0.114,2.918-0.993,3.798l-1.604,1.604
		c1.575,5.829,6.148,10.404,11.979,11.982l1.603-1.604c0.883-0.883,2.597-1.322,3.799-0.996l4.434,1.212
		c1.202,0.33,2.506,1.561,2.901,2.74l0.168,0.512C47.116,41.21,46.721,42.898,45.842,43.773z"/>
</g>
</svg>
